<?xml version="1.0" encoding="utf-8"?>
<!-- Generator: Adobe Illustrator 21.0.2, SVG Export Plug-In . SVG Version: 6.00 Build 0)  -->
<svg version="1.1" id="Layer_2" xmlns="http://www.w3.org/2000/svg" xmlns:xlink="http://www.w3.org/1999/xlink" x="0px" y="0px"
	 viewBox="0 0 717.3 166.8" style="enable-background:new 0 0 717.3 166.8;" xml:space="preserve">
<style type="text/css">
	.st0{fill:none;stroke:#000000;stroke-width:0.9464;stroke-miterlimit:10;}
</style>
<path class="st0" d="M19.2,160.8h176c0,0,41.6-4.8,58-10.7c8.5-3.1,15.8-7.6,15.8-7.6s60.7-46.5,69.1-46.7
	c5.8-0.1,41.2,42.3,43.5,44.8c3.3,3.7,7.6,7.2,7.6,7.2s3.9,2.2,3.8,3.8c-0.1,1.5-20.4,2.1-25.5-0.2c-10-4.6-15.5-10.4-31.2-9.8
	c-15.8,0.6-40.3,13.5-41.5,11.5s7.8-8.8,23.9-16.2c21.3-9.9,53.9-22.7,68.8-30.6s32.5-28.4,36.9-33.1s12.9-18,14.8-17.7
	c1.9,0.3,1.1,7.4,3.8,6.6c7.5-2.2,18.9-30.9,25.2-33.4c6.3-2.5,8.2-1.9,12.6-8.2s6.9-15.5,8.5-15.5s5,8.5,0.9,20.2
	c-4.1,11.7-4.1,11.7-4.1,11.7s-3.5,9.5-9.8,17.7c-6.3,8.2-18.9,19.2-21.1,22.1S442,90.4,440.6,92c-2.9,3.3-5.3,8.8-3.7,10.1
	s14.5-11.4,22.7-19.2s21.1-18.6,26.2-28.1c5-9.5,8.2-20.5,8.5-24.3c0.3-3.8-0.3-8.5,1.9-8.5s7.3,15.8,12.6,22.7s18.3,13.3,24.3,19.2
	s24.3,30.9,28.4,39.1c4.1,8.2,26.5,28.1,29.3,30.9s16.6,15.7,11.4,18.9c-4.2,2.6-18,5.7-30,0.9c-12-4.7-33.1-25.2-36.9-36.3
	c-3.8-11-12-28.1-14.8-35c-3.5-8.7-8.4-7.5-10.6-8.2c-2.2-0.6-2.9-10.8-6.4-10.1c-3.5,0.6-6.3,17.4-12.3,25.6s-55.5,47-61.2,51.1
	c-5.7,4.1-20.5,11.7-19.2,15.8c1.3,4.1,16.4,4.7,31.9,3.2c15.5-1.6,50.2-11.7,64-17.7c13.9-6,31.9-19.6,41.3-29
	c9.5-9.5,19.2-22.7,21.8-24.6s11.4-8.2,15.1-5.4c3.8,2.8,10.1,13.6,13.9,19.2c3.8,5.7,21.1,14.8,26.5,20.2
	c5.4,5.4,15.8,18.3,21.8,24.3c6,6,11,11.7,20.2,13.6s30.9,1.3,30.9,1.3"/>
</svg>
